<svg width="32" height="32" viewBox="0 0 32 32" fill="none" xmlns="http://www.w3.org/2000/svg">
<g clip-path="url(#clip0_1886_39756)">
<path d="M31.8848 25.1152L30.0263 19.7063C30.9221 17.8749 31.3956 15.8381 31.3988 13.7888C31.4043 10.2255 30.0256 6.85631 27.5167 4.30193C25.0074 1.74705 21.6635 0.308857 18.101 0.25242C14.4069 0.194045 10.9347 1.59917 8.32421 4.20955C5.80708 6.72662 4.41095 10.0449 4.36677 13.5909C1.88589 15.4588 0.421571 18.371 0.426384 21.4816C0.428696 22.9372 0.756322 24.3842 1.37714 25.6926L0.0969457 29.4181C-0.123117 30.0585 0.0376331 30.7539 0.516509 31.2328C0.85351 31.5699 1.29782 31.7493 1.75476 31.7493C1.94701 31.7493 2.14151 31.7175 2.3312 31.6524L6.05677 30.3722C7.36521 30.993 8.81215 31.3206 10.2678 31.3229C10.273 31.3229 10.278 31.3229 10.2833 31.3229C13.4402 31.3228 16.3745 29.8207 18.2356 27.279C20.1723 27.228 22.0885 26.7592 23.8208 25.9118L29.2298 27.7704C29.4552 27.8478 29.6863 27.8856 29.9148 27.8856C30.4578 27.8856 30.9858 27.6723 31.3863 27.2717C31.9553 26.7027 32.1463 25.8763 31.8848 25.1152ZM10.2832 29.4182C10.2791 29.4182 10.2748 29.4182 10.2707 29.4182C8.98234 29.4162 7.7029 29.0986 6.57096 28.4997C6.33821 28.3767 6.06496 28.3553 5.81608 28.4408L1.99589 29.7535L3.30858 25.9334C3.39408 25.6845 3.37283 25.4112 3.2497 25.1785C2.65083 24.0465 2.3332 22.7671 2.3312 21.4787C2.32801 19.4063 3.1342 17.442 4.54402 15.9711C5.00452 18.7783 6.34246 21.3652 8.41634 23.4022C10.4749 25.4242 13.0625 26.7115 15.8545 27.1324C14.3803 28.5855 12.393 29.4182 10.2832 29.4182ZM30.0393 25.9248C29.9851 25.979 29.9209 25.9938 29.8486 25.9689L24.0581 23.9791C23.9576 23.9446 23.8529 23.9275 23.7487 23.9275C23.595 23.9275 23.4419 23.9647 23.3033 24.038C21.65 24.9127 19.7817 25.3765 17.9004 25.3794C17.8942 25.3794 17.8885 25.3794 17.8824 25.3794C11.5784 25.3794 6.37133 20.2585 6.27146 13.9561C6.22115 10.782 7.42852 7.79893 9.67109 5.55637C11.9137 3.3138 14.8972 2.10686 18.0709 2.15686C24.3794 2.25692 29.5038 7.47362 29.494 13.7858C29.4911 15.6672 29.0272 17.5355 28.1527 19.1887C28.0296 19.4214 28.0083 19.6946 28.0938 19.9436L30.0835 25.7341C30.1083 25.8066 30.0934 25.8708 30.0393 25.9248Z" fill="white"/>
<path d="M23.5558 8.7195H12.2083C11.6823 8.7195 11.2559 9.14594 11.2559 9.67188C11.2559 10.1979 11.6823 10.6243 12.2083 10.6243H23.5558C24.0818 10.6243 24.5082 10.1978 24.5082 9.67188C24.5082 9.14594 24.0818 8.7195 23.5558 8.7195Z" fill="white"/>
<path d="M23.5558 12.6364H12.2083C11.6823 12.6364 11.2559 13.0629 11.2559 13.5888C11.2559 14.1148 11.6823 14.5412 12.2083 14.5412H23.5558C24.0818 14.5412 24.5082 14.1148 24.5082 13.5888C24.5082 13.0629 24.0818 12.6364 23.5558 12.6364Z" fill="white"/>
<path d="M19.1878 16.5533H12.2082C11.6822 16.5533 11.2558 16.9797 11.2558 17.5056C11.2558 18.0316 11.6823 18.458 12.2082 18.458H19.1877C19.7137 18.458 20.1401 18.0316 20.1401 17.5056C20.1401 16.9797 19.7138 16.5533 19.1878 16.5533Z" fill="white"/>
</g>
<defs>
<clipPath id="clip0_1886_39756">
<rect width="32" height="32" fill="white"/>
</clipPath>
</defs>
</svg>
