<svg width="36" height="36" viewBox="0 0 36 36" fill="none" xmlns="http://www.w3.org/2000/svg">
<path fill-rule="evenodd" clip-rule="evenodd" d="M36 18.0099C36 26.1064 30.6454 32.9589 23.2953 35.2101C21.6158 35.7235 19.8375 36 17.9802 36C9.62239 36 2.60812 30.3127 0.572997 22.6111C0.256861 21.4065 0.0592755 20.1624 0 18.8788V17.1212C0.0197585 16.7263 0.0592755 16.3313 0.0987925 15.9364C0.197585 15.028 0.375412 14.1196 0.612514 13.2507C2.68716 5.62809 9.68167 0 18 0C23.5719 0 28.551 2.5277 31.8705 6.51673C33.3721 8.31377 34.5181 10.4268 35.2294 12.7175C35.7234 14.3763 36 16.1536 36 18.0099Z" fill="#F55266"/>
<path d="M17.4659 21.6238C16.9522 21.6238 16.478 21.3078 16.3199 20.7944C16.1223 20.1625 16.4582 19.4911 17.0905 19.2936L24.7568 16.8251L23.5515 8.5706L10.2343 13.1916C9.60199 13.4088 8.9302 13.0731 8.71286 12.4411C8.49552 11.8092 8.83141 11.1378 9.46368 10.9206L23.3539 6.10214C23.9072 5.90466 24.5197 5.96391 24.9939 6.26012C25.4483 6.53659 25.7645 7.01053 25.8435 7.54372L27.1871 16.7264C27.3254 17.7138 26.6931 18.7209 25.7052 19.0566L17.8413 21.5843C17.703 21.6041 17.5844 21.6238 17.4659 21.6238Z" fill="white"/>
<path d="M24.776 21.762C24.5982 21.1301 23.9264 20.7549 23.2941 20.9524C23.1361 20.9919 19.6191 22.0188 18.1174 22.5322C15.7859 23.3221 14.8375 22.552 14.6992 22.4335L8.13937 14.021C6.79579 12.1054 4.74091 12.0264 3.73322 12.2634L0.611377 13.2508C0.374275 14.1395 0.196449 15.0281 0.0976562 15.9365L4.32598 14.5739C4.54332 14.5344 5.51149 14.4159 6.18328 15.3836L12.8419 23.9343C13.5927 24.8822 14.8573 25.2574 16.2008 25.2574C17.1097 25.2574 18.0581 25.0797 18.888 24.7834C20.3304 24.3095 23.9264 23.2431 23.9659 23.2431C24.5982 23.0654 24.9736 22.4137 24.776 21.762Z" fill="white"/>
<path d="M18.6891 28.6539C18.6891 29.7203 17.8197 30.5892 16.7527 30.5892C15.6858 30.5892 14.8164 29.7203 14.8164 28.6539C14.8164 27.5875 15.6858 26.7186 16.7527 26.7186C17.8197 26.7186 18.6891 27.5875 18.6891 28.6539Z" fill="white"/>
<path d="M27.2047 26.4818C27.2047 27.5482 26.3353 28.4171 25.2684 28.4171C24.2014 28.4171 23.332 27.5482 23.332 26.4818C23.332 25.4154 24.2014 24.5465 25.2684 24.5465C26.3353 24.5465 27.2047 25.4154 27.2047 26.4818Z" fill="white"/>
</svg>
