<svg width="24" height="24" viewBox="0 0 24 24" fill="none" xmlns="http://www.w3.org/2000/svg">
<circle cx="12" cy="12" r="10.5" fill="#33B36B" stroke="#222934" stroke-width="3"/>
<mask id="path-2-inside-1_9712_5217" fill="white">
<path d="M11.8523 16.1193C11.2898 16.1193 10.7884 16.0227 10.348 15.8295C9.91051 15.6364 9.5625 15.3679 9.30398 15.0241C9.0483 14.6776 8.90909 14.2756 8.88636 13.8182H9.96023C9.98295 14.0994 10.0795 14.3423 10.25 14.5469C10.4205 14.7486 10.6435 14.9048 10.919 15.0156C11.1946 15.1264 11.5 15.1818 11.8352 15.1818C12.2102 15.1818 12.5426 15.1165 12.8324 14.9858C13.1222 14.8551 13.3494 14.6733 13.5142 14.4403C13.679 14.2074 13.7614 13.9375 13.7614 13.6307C13.7614 13.3097 13.6818 13.027 13.5227 12.7827C13.3636 12.5355 13.1307 12.3423 12.8239 12.2031C12.517 12.0639 12.142 11.9943 11.6989 11.9943H11V11.0568H11.6989C12.0455 11.0568 12.3494 10.9943 12.6108 10.8693C12.875 10.7443 13.081 10.5682 13.2287 10.3409C13.3793 10.1136 13.4545 9.84659 13.4545 9.53977C13.4545 9.24432 13.3892 8.98722 13.2585 8.76847C13.1278 8.54972 12.9432 8.37926 12.7045 8.2571C12.4688 8.13494 12.1903 8.07386 11.8693 8.07386C11.5682 8.07386 11.2841 8.12926 11.017 8.24006C10.7528 8.34801 10.5369 8.50568 10.3693 8.71307C10.2017 8.91761 10.1108 9.16477 10.0966 9.45455H9.07386C9.09091 8.99716 9.22869 8.59659 9.48722 8.25284C9.74574 7.90625 10.0838 7.63636 10.5014 7.44318C10.9219 7.25 11.3835 7.15341 11.8864 7.15341C12.4261 7.15341 12.8892 7.26278 13.2756 7.48153C13.6619 7.69744 13.9588 7.98295 14.1662 8.33807C14.3736 8.69318 14.4773 9.0767 14.4773 9.48864C14.4773 9.98011 14.348 10.3991 14.0895 10.7457C13.8338 11.0923 13.4858 11.3324 13.0455 11.4659V11.5341C13.5966 11.625 14.027 11.8594 14.3366 12.2372C14.6463 12.6122 14.8011 13.0767 14.8011 13.6307C14.8011 14.1051 14.6719 14.5312 14.4134 14.9091C14.1577 15.2841 13.8082 15.5795 13.3651 15.7955C12.9219 16.0114 12.4176 16.1193 11.8523 16.1193Z"/>
</mask>
<path d="M11.8523 16.1193C11.2898 16.1193 10.7884 16.0227 10.348 15.8295C9.91051 15.6364 9.5625 15.3679 9.30398 15.0241C9.0483 14.6776 8.90909 14.2756 8.88636 13.8182H9.96023C9.98295 14.0994 10.0795 14.3423 10.25 14.5469C10.4205 14.7486 10.6435 14.9048 10.919 15.0156C11.1946 15.1264 11.5 15.1818 11.8352 15.1818C12.2102 15.1818 12.5426 15.1165 12.8324 14.9858C13.1222 14.8551 13.3494 14.6733 13.5142 14.4403C13.679 14.2074 13.7614 13.9375 13.7614 13.6307C13.7614 13.3097 13.6818 13.027 13.5227 12.7827C13.3636 12.5355 13.1307 12.3423 12.8239 12.2031C12.517 12.0639 12.142 11.9943 11.6989 11.9943H11V11.0568H11.6989C12.0455 11.0568 12.3494 10.9943 12.6108 10.8693C12.875 10.7443 13.081 10.5682 13.2287 10.3409C13.3793 10.1136 13.4545 9.84659 13.4545 9.53977C13.4545 9.24432 13.3892 8.98722 13.2585 8.76847C13.1278 8.54972 12.9432 8.37926 12.7045 8.2571C12.4688 8.13494 12.1903 8.07386 11.8693 8.07386C11.5682 8.07386 11.2841 8.12926 11.017 8.24006C10.7528 8.34801 10.5369 8.50568 10.3693 8.71307C10.2017 8.91761 10.1108 9.16477 10.0966 9.45455H9.07386C9.09091 8.99716 9.22869 8.59659 9.48722 8.25284C9.74574 7.90625 10.0838 7.63636 10.5014 7.44318C10.9219 7.25 11.3835 7.15341 11.8864 7.15341C12.4261 7.15341 12.8892 7.26278 13.2756 7.48153C13.6619 7.69744 13.9588 7.98295 14.1662 8.33807C14.3736 8.69318 14.4773 9.0767 14.4773 9.48864C14.4773 9.98011 14.348 10.3991 14.0895 10.7457C13.8338 11.0923 13.4858 11.3324 13.0455 11.4659V11.5341C13.5966 11.625 14.027 11.8594 14.3366 12.2372C14.6463 12.6122 14.8011 13.0767 14.8011 13.6307C14.8011 14.1051 14.6719 14.5312 14.4134 14.9091C14.1577 15.2841 13.8082 15.5795 13.3651 15.7955C12.9219 16.0114 12.4176 16.1193 11.8523 16.1193Z" fill="white"/>
<path d="M10.348 15.8295L9.13621 18.5739L9.14277 18.5768L10.348 15.8295ZM9.30398 15.0241L6.8898 16.8051L6.89803 16.8162L6.90636 16.8273L9.30398 15.0241ZM8.88636 13.8182V10.8182H5.73359L5.89006 13.9671L8.88636 13.8182ZM9.96023 13.8182L12.9505 13.5765L12.7276 10.8182H9.96023V13.8182ZM10.25 14.5469L7.94534 16.4674L7.95195 16.4754L7.95862 16.4833L10.25 14.5469ZM10.919 15.0156L9.79992 17.7991L9.79992 17.7991L10.919 15.0156ZM13.5142 14.4403L11.065 12.7079L11.065 12.7079L13.5142 14.4403ZM13.5227 12.7827L11.0001 14.4064L11.0044 14.4131L11.0087 14.4197L13.5227 12.7827ZM12.8239 12.2031L11.5844 14.9351L11.5844 14.9351L12.8239 12.2031ZM11 11.9943H8V14.9943H11V11.9943ZM11 11.0568V8.05682H8V11.0568H11ZM12.6108 10.8693L11.3278 8.15749L11.3164 8.16292L12.6108 10.8693ZM13.2287 10.3409L10.7277 8.68403L10.7205 8.69495L10.7134 8.70594L13.2287 10.3409ZM13.2585 8.76847L15.8339 7.2299L15.8339 7.2299L13.2585 8.76847ZM12.7045 8.2571L11.3245 10.9209L11.331 10.9242L11.3375 10.9275L12.7045 8.2571ZM11.017 8.24006L12.1518 11.0172L12.1593 11.0141L12.1667 11.011L11.017 8.24006ZM10.3693 8.71307L12.6898 10.6145L12.6962 10.6067L12.7025 10.5988L10.3693 8.71307ZM10.0966 9.45455V12.4545H12.9531L13.093 9.60143L10.0966 9.45455ZM9.07386 9.45455L6.07594 9.34282L5.95998 12.4545H9.07386V9.45455ZM9.48722 8.25284L11.8849 10.056L11.8919 10.0465L9.48722 8.25284ZM10.5014 7.44318L9.24891 4.71714L9.2419 4.72039L10.5014 7.44318ZM13.2756 7.48153L11.7975 10.0921L11.8048 10.0963L11.8121 10.1004L13.2756 7.48153ZM14.1662 8.33807L11.5756 9.85097L11.5756 9.85097L14.1662 8.33807ZM14.0895 10.7457L11.6848 8.95205L11.68 8.95841L11.6753 8.96479L14.0895 10.7457ZM13.0455 11.4659L12.1749 8.59499L10.0455 9.2407V11.4659H13.0455ZM13.0455 11.5341H10.0455V14.0798L12.5572 14.4941L13.0455 11.5341ZM14.3366 12.2372L12.0163 14.1388L12.0234 14.1474L14.3366 12.2372ZM14.4134 14.9091L11.9374 13.215L11.9347 13.2191L14.4134 14.9091ZM13.3651 15.7955L14.679 18.4924L14.679 18.4924L13.3651 15.7955ZM11.8523 13.1193C11.635 13.1193 11.5546 13.0829 11.5533 13.0823L9.14277 18.5768C10.0221 18.9626 10.9446 19.1193 11.8523 19.1193V13.1193ZM11.5598 13.0852C11.5428 13.0777 11.5581 13.0823 11.5913 13.108C11.6258 13.1346 11.6655 13.1729 11.7016 13.221L6.90636 16.8273C7.50661 17.6255 8.28311 18.1972 9.13621 18.5739L11.5598 13.0852ZM11.7181 13.2432C11.7678 13.3105 11.8119 13.3923 11.8427 13.481C11.8729 13.5683 11.881 13.6358 11.8827 13.6693L5.89006 13.9671C5.94013 14.9747 6.26118 15.953 6.8898 16.8051L11.7181 13.2432ZM8.88636 16.8182H9.96023V10.8182H8.88636V16.8182ZM6.96997 14.0598C7.0394 14.919 7.35427 15.7582 7.94534 16.4674L12.5547 12.6263C12.6685 12.7629 12.7664 12.9242 12.8374 13.1027C12.9078 13.2797 12.9397 13.4433 12.9505 13.5765L6.96997 14.0598ZM7.95862 16.4833C8.48253 17.1032 9.12772 17.5288 9.79992 17.7991L12.0382 12.2322C12.1592 12.2809 12.3584 12.3939 12.5414 12.6105L7.95862 16.4833ZM9.79992 17.7991C10.4741 18.0701 11.1656 18.1818 11.8352 18.1818V12.1818C11.8344 12.1818 11.9151 12.1827 12.0382 12.2322L9.79992 17.7991ZM11.8352 18.1818C12.56 18.1818 13.3249 18.0547 14.0657 17.7206L11.5991 12.251C11.7603 12.1783 11.8605 12.1818 11.8352 12.1818V18.1818ZM14.0657 17.7206C14.7859 17.3958 15.4557 16.8905 15.9635 16.1727L11.065 12.7079C11.2431 12.4561 11.4584 12.3145 11.5991 12.251L14.0657 17.7206ZM15.9635 16.1727C16.514 15.3944 16.7614 14.5087 16.7614 13.6307H10.7614C10.7614 13.513 10.7776 13.3599 10.8303 13.1873C10.8836 13.0127 10.9646 12.8498 11.065 12.7079L15.9635 16.1727ZM16.7614 13.6307C16.7614 12.7895 16.5447 11.9258 16.0367 11.1457L11.0087 14.4197C10.9215 14.2857 10.8557 14.1392 10.8139 13.9906C10.7726 13.8441 10.7614 13.7195 10.7614 13.6307H16.7614ZM16.0453 11.1589C15.5302 10.3587 14.8167 9.81297 14.0634 9.47116L11.5844 14.9351C11.4446 14.8717 11.197 14.7123 11.0001 14.4064L16.0453 11.1589ZM14.0634 9.47116C13.2649 9.10891 12.4409 8.99432 11.6989 8.99432V14.9943C11.7655 14.9943 11.7843 14.9997 11.765 14.9961C11.7447 14.9924 11.6788 14.9779 11.5844 14.9351L14.0634 9.47116ZM11.6989 8.99432H11V14.9943H11.6989V8.99432ZM14 11.9943V11.0568H8V11.9943H14ZM11 14.0568H11.6989V8.05682H11V14.0568ZM11.6989 14.0568C12.4066 14.0568 13.168 13.9283 13.9052 13.5757L11.3164 8.16292C11.5308 8.06037 11.6843 8.05682 11.6989 8.05682V14.0568ZM13.8938 13.5811C14.6198 13.2377 15.2695 12.7059 15.744 11.9759L10.7134 8.70594C10.8924 8.43048 11.1302 8.25097 11.3278 8.15751L13.8938 13.5811ZM15.7296 11.9978C16.2455 11.2192 16.4545 10.3595 16.4545 9.53977H10.4545C10.4545 9.3337 10.513 9.00811 10.7277 8.68403L15.7296 11.9978ZM16.4545 9.53977C16.4545 8.79021 16.2843 7.98367 15.8339 7.2299L10.6831 10.307C10.4942 9.99076 10.4545 9.69842 10.4545 9.53977H16.4545ZM15.8339 7.2299C15.3993 6.50226 14.7839 5.95129 14.0716 5.58666L11.3375 10.9275C11.1025 10.8072 10.8564 10.5972 10.6831 10.307L15.8339 7.2299ZM14.0846 5.59335C13.3421 5.2087 12.5713 5.07386 11.8693 5.07386V11.0739C11.8094 11.0739 11.5954 11.0612 11.3245 10.9209L14.0846 5.59335ZM11.8693 5.07386C11.1903 5.07386 10.514 5.20081 9.86739 5.46908L12.1667 11.011C12.0542 11.0577 11.946 11.0739 11.8693 11.0739V5.07386ZM9.88231 5.46294C9.1838 5.74835 8.54395 6.19895 8.0361 6.82731L12.7025 10.5988C12.5299 10.8124 12.3219 10.9477 12.1518 11.0172L9.88231 5.46294ZM8.04888 6.8116C7.43391 7.56207 7.14265 8.44145 7.10019 9.30766L13.093 9.60143C13.0867 9.72962 13.0606 9.89826 12.991 10.0875C12.9204 10.2794 12.8172 10.4589 12.6898 10.6145L8.04888 6.8116ZM10.0966 6.45455H9.07386V12.4545H10.0966V6.45455ZM12.0718 9.56627C12.0702 9.60834 12.0612 9.68712 12.0269 9.78688C11.992 9.88828 11.9415 9.98071 11.8848 10.056L7.0896 6.44967C6.43889 7.3149 6.11425 8.31501 6.07594 9.34282L12.0718 9.56627ZM11.8919 10.0465C11.8677 10.079 11.8377 10.11 11.8063 10.135C11.7757 10.1595 11.7568 10.1679 11.7609 10.166L9.2419 4.72039C8.40117 5.1093 7.65864 5.68674 7.08249 6.45915L11.8919 10.0465ZM11.7539 10.1692C11.7561 10.1682 11.7622 10.1654 11.7774 10.1623C11.7933 10.1589 11.8278 10.1534 11.8864 10.1534V4.15341C10.9892 4.15341 10.0954 4.32824 9.24892 4.71715L11.7539 10.1692ZM11.8864 10.1534C11.9545 10.1534 11.9712 10.1604 11.9489 10.1551C11.924 10.1492 11.8682 10.1322 11.7975 10.0921L14.7536 4.87092C13.8287 4.34722 12.833 4.15341 11.8864 4.15341V10.1534ZM11.8121 10.1004C11.7978 10.0924 11.7582 10.0678 11.7085 10.0199C11.6577 9.97111 11.6117 9.9128 11.5756 9.85097L16.7568 6.82517C16.2586 5.97216 15.5562 5.31935 14.739 4.8627L11.8121 10.1004ZM11.5756 9.85097C11.5504 9.80784 11.5232 9.74786 11.5035 9.67504C11.4838 9.60226 11.4773 9.53733 11.4773 9.48864H17.4773C17.4773 8.54598 17.2328 7.64021 16.7568 6.82517L11.5756 9.85097ZM11.4773 9.48864C11.4773 9.47031 11.4799 9.39638 11.5136 9.28721C11.5485 9.17418 11.6063 9.05723 11.6848 8.95205L16.4942 12.5394C17.191 11.6053 17.4773 10.5342 17.4773 9.48864H11.4773ZM11.6753 8.96479C11.7409 8.87591 11.8287 8.78836 11.9333 8.71625C12.036 8.64538 12.1245 8.61028 12.1749 8.59499L13.916 14.3368C14.9299 14.0294 15.8373 13.43 16.5037 12.5267L11.6753 8.96479ZM10.0455 11.4659V11.5341H16.0455V11.4659H10.0455ZM12.5572 14.4941C12.547 14.4924 12.4648 14.477 12.3469 14.4127C12.2235 14.3455 12.1075 14.25 12.0163 14.1388L16.657 10.3356C15.8194 9.31363 14.6939 8.76547 13.5337 8.57409L12.5572 14.4941ZM12.0234 14.1474C11.9413 14.048 11.8776 13.9314 11.839 13.8155C11.802 13.7046 11.8011 13.6343 11.8011 13.6307H17.8011C17.8011 12.4821 17.4647 11.3137 16.6499 10.327L12.0234 14.1474ZM11.8011 13.6307C11.8011 13.5921 11.8069 13.5224 11.8334 13.4353C11.8601 13.3472 11.8987 13.2716 11.9374 13.215L16.8893 16.6031C17.5021 15.7074 17.8011 14.6864 17.8011 13.6307H11.8011ZM11.9347 13.2191C11.9607 13.1809 11.9921 13.1468 12.0225 13.1211C12.0519 13.0962 12.0662 13.0912 12.0511 13.0985L14.679 18.4924C15.5498 18.0682 16.3173 17.4421 16.892 16.5991L11.9347 13.2191ZM12.0511 13.0985C12.0576 13.0953 12.0522 13.0993 12.0265 13.1048C11.9994 13.1106 11.9439 13.1193 11.8523 13.1193V19.1193C12.806 19.1193 13.7703 18.9351 14.679 18.4924L12.0511 13.0985Z" fill="white" mask="url(#path-2-inside-1_9712_5217)"/>
</svg>
