<svg width="48" height="48" viewBox="0 0 48 48" fill="none" xmlns="http://www.w3.org/2000/svg">
<rect width="48" height="48" rx="24" fill="#333D4C" fill-opacity="0.7"/>
<path fill-rule="evenodd" clip-rule="evenodd" d="M29.714 18.286C29.9703 18.5422 29.9703 18.9578 29.714 19.214L19.214 29.714C18.9578 29.9703 18.5422 29.9703 18.286 29.714C18.0297 29.4578 18.0297 29.0422 18.286 28.786L28.786 18.286C29.0422 18.0297 29.4578 18.0297 29.714 18.286Z" fill="#F55266"/>
<path fill-rule="evenodd" clip-rule="evenodd" d="M19.875 18.6562C19.2019 18.6562 18.6562 19.2019 18.6562 19.875C18.6562 20.5481 19.2019 21.0938 19.875 21.0938C20.5481 21.0938 21.0938 20.5481 21.0938 19.875C21.0938 19.2019 20.5481 18.6562 19.875 18.6562ZM17.3438 19.875C17.3438 18.477 18.477 17.3438 19.875 17.3438C21.273 17.3438 22.4062 18.477 22.4062 19.875C22.4062 21.273 21.273 22.4062 19.875 22.4062C18.477 22.4062 17.3438 21.273 17.3438 19.875Z" fill="#F55266"/>
<path fill-rule="evenodd" clip-rule="evenodd" d="M28.125 26.9062C27.4519 26.9062 26.9062 27.4519 26.9062 28.125C26.9062 28.7981 27.4519 29.3438 28.125 29.3438C28.7981 29.3438 29.3438 28.7981 29.3438 28.125C29.3438 27.4519 28.7981 26.9062 28.125 26.9062ZM25.5938 28.125C25.5938 26.727 26.727 25.5938 28.125 25.5938C29.523 25.5938 30.6562 26.727 30.6562 28.125C30.6562 29.523 29.523 30.6562 28.125 30.6562C26.727 30.6562 25.5938 29.523 25.5938 28.125Z" fill="#F55266"/>
</svg>
