<svg width="48" height="48" viewBox="0 0 48 48" fill="none" xmlns="http://www.w3.org/2000/svg">
<path fill-rule="evenodd" clip-rule="evenodd" d="M23.9799 16.9278C24.1069 17.1532 24.0896 17.4321 23.9359 17.6401C23.2819 18.5249 22.9672 19.615 23.049 20.7123C23.1308 21.8095 23.6037 22.8409 24.3817 23.6189C25.1598 24.3969 26.1912 24.8699 27.2884 24.9517C28.3856 25.0335 29.4758 24.7188 30.3606 24.0648C30.8152 23.7399 31.4425 24.0955 31.4041 24.6529C31.2747 26.0537 30.749 27.3886 29.8885 28.5015C29.0281 29.6144 27.8685 30.4592 26.5454 30.9371C25.2223 31.415 23.7905 31.5063 22.4175 31.2001C21.0444 30.8939 19.787 30.2031 18.7923 29.2084C17.7976 28.2137 17.1067 26.9562 16.8006 25.5832C16.4944 24.2102 16.5856 22.7784 17.0635 21.4553C17.5414 20.1322 18.3863 18.9726 19.4992 18.1122C20.6121 17.2517 21.947 16.726 23.3478 16.5965C23.6053 16.5727 23.8529 16.7025 23.9799 16.9278ZM29.825 25.8539C28.9954 26.186 28.095 26.328 27.1908 26.2605C25.7801 26.1553 24.454 25.5473 23.4537 24.547C22.4534 23.5467 21.8453 22.2206 21.7401 20.8099C21.6727 19.9057 21.8147 19.0053 22.1468 18.1757C21.4835 18.3911 20.859 18.7199 20.302 19.1505C19.3863 19.8585 18.6912 20.8126 18.298 21.9012C17.9048 22.9898 17.8297 24.1679 18.0816 25.2976C18.3335 26.4273 18.9019 27.4619 19.7204 28.2803C20.5388 29.0987 21.5734 29.6672 22.7031 29.9191C23.8328 30.171 25.0109 30.0959 26.0995 29.7027C27.1881 29.3095 28.1422 28.6144 28.8502 27.6987C29.2808 27.1417 29.6095 26.5171 29.825 25.8539Z" fill="#E0E5EB"/>
</svg>
