<svg width="48" height="48" viewBox="0 0 48 48" fill="none" xmlns="http://www.w3.org/2000/svg">
<g clip-path="url(#clip0_9712_5211)">
<path fill-rule="evenodd" clip-rule="evenodd" d="M26.6004 23.6902C27.6892 22.8901 28.3958 21.6004 28.3958 20.1457C28.3958 17.718 26.4278 15.75 24.0001 15.75C21.5724 15.75 19.6044 17.718 19.6044 20.1457C19.6044 21.6004 20.311 22.8901 21.3997 23.6902C18.1586 24.4688 15.75 27.3863 15.75 30.8662C15.75 31.6305 16.3695 32.25 17.1338 32.25H30.8662C31.6305 32.25 32.25 31.6305 32.25 30.8662C32.25 27.3863 29.8414 24.4689 26.6004 23.6902ZM27.0833 20.1457C27.0833 21.8485 25.7029 23.2289 24.0001 23.2289C22.2973 23.2289 20.9169 21.8485 20.9169 20.1457C20.9169 18.4429 22.2973 17.0625 24.0001 17.0625C25.7029 17.0625 27.0833 18.4429 27.0833 20.1457ZM23.13 24.7987H24.87C28.221 24.7987 30.9375 27.5152 30.9375 30.8662C30.9375 30.9056 30.9056 30.9375 30.8662 30.9375H17.1338C17.0944 30.9375 17.0625 30.9056 17.0625 30.8662C17.0625 27.5152 19.779 24.7987 23.13 24.7987Z" fill="#E0E5EB"/>
</g>
<defs>
<clipPath id="clip0_9712_5211">
<rect width="18" height="18" fill="white" transform="translate(15 15)"/>
</clipPath>
</defs>
</svg>
