<svg width="48" height="48" viewBox="0 0 48 48" fill="none" xmlns="http://www.w3.org/2000/svg">
<rect width="48" height="48" rx="24" fill="#333D4C"/>
<g clip-path="url(#clip0_9712_5214)">
<path fill-rule="evenodd" clip-rule="evenodd" d="M21.75 30.6562C21.6982 30.6562 21.6562 30.6982 21.6562 30.75C21.6562 30.8018 21.6982 30.8438 21.75 30.8438C21.8018 30.8438 21.8438 30.8018 21.8438 30.75C21.8438 30.6982 21.8018 30.6562 21.75 30.6562ZM20.3438 30.75C20.3438 29.9733 20.9733 29.3438 21.75 29.3438C22.5267 29.3438 23.1562 29.9733 23.1562 30.75C23.1562 31.5266 22.5267 32.1562 21.75 32.1562C20.9733 32.1562 20.3438 31.5266 20.3438 30.75Z" fill="#E0E5EB"/>
<path fill-rule="evenodd" clip-rule="evenodd" d="M30 30.6562C29.9482 30.6562 29.9062 30.6982 29.9062 30.75C29.9062 30.8018 29.9482 30.8438 30 30.8438C30.0518 30.8438 30.0938 30.8018 30.0938 30.75C30.0938 30.6982 30.0518 30.6562 30 30.6562ZM28.5938 30.75C28.5938 29.9733 29.2233 29.3438 30 29.3438C30.7767 29.3438 31.4062 29.9733 31.4062 30.75C31.4062 31.5266 30.7767 32.1562 30 32.1562C29.2233 32.1562 28.5938 31.5266 28.5938 30.75Z" fill="#E0E5EB"/>
<path fill-rule="evenodd" clip-rule="evenodd" d="M15.0938 15.75C15.0938 15.3876 15.3876 15.0938 15.75 15.0938H18.75C19.0628 15.0938 19.3321 15.3145 19.3935 15.6212L20.0385 18.8438H32.25C32.4456 18.8438 32.631 18.931 32.7556 19.0817C32.8803 19.2324 32.9313 19.4308 32.8946 19.6229L31.6937 25.9204C31.5951 26.4167 31.3251 26.8626 30.9309 27.1799C30.5384 27.4958 30.0478 27.6643 29.5443 27.6562H22.2657C21.7622 27.6643 21.2716 27.4958 20.8791 27.1799C20.4851 26.8627 20.2151 26.4171 20.1164 25.9209L18.863 19.6585C18.8583 19.6394 18.8544 19.62 18.8514 19.6002L18.2121 16.4062H15.75C15.3876 16.4062 15.0938 16.1124 15.0938 15.75ZM20.3012 20.1562L21.4037 25.6647C21.4423 25.8589 21.5479 26.0334 21.7022 26.1575C21.8564 26.2817 22.0494 26.3477 22.2474 26.3439L22.26 26.3438H29.55L29.5626 26.3439C29.7606 26.3477 29.9536 26.2817 30.1078 26.1575C30.2615 26.0338 30.367 25.8602 30.4059 25.6668L30.4063 25.6647L31.4568 20.1562H20.3012Z" fill="#E0E5EB"/>
</g>
<defs>
<clipPath id="clip0_9712_5214">
<rect width="18" height="18" fill="white" transform="translate(15 15)"/>
</clipPath>
</defs>
</svg>
