<svg width="36" height="36" viewBox="0 0 36 36" fill="none" xmlns="http://www.w3.org/2000/svg">
<path fill-rule="evenodd" clip-rule="evenodd" d="M36 18.0099C36 26.1064 30.6454 32.9589 23.2953 35.2101C21.6158 35.7235 19.8375 36 17.9802 36C9.62239 36 2.60812 30.3127 0.572997 22.6111C0.256861 21.4065 0.0592755 20.1624 0 18.8788V17.1212C0.0197585 16.7263 0.0592755 16.3313 0.0987925 15.9364C0.197585 15.028 0.375412 14.1196 0.612514 13.2507C2.68716 5.62809 9.68167 0 18 0C23.5719 0 28.551 2.5277 31.8705 6.51673C33.3721 8.31377 34.5181 10.4268 35.2294 12.7175C35.7234 14.3763 36 16.1536 36 18.0099Z" fill="#F55266"/>
</svg>
