<svg width="20" height="20" viewBox="0 0 20 20" fill="none" xmlns="http://www.w3.org/2000/svg">
<g opacity="0.6" clip-path="url(#clip0_1886_39470)">
<path d="M19.375 13.4375H18.4375V4.6875C18.4375 4.19022 18.24 3.71331 17.8883 3.36167C17.5367 3.01004 17.0598 2.8125 16.5625 2.8125H3.4375C2.94022 2.8125 2.46331 3.01004 2.11167 3.36167C1.76004 3.71331 1.5625 4.19022 1.5625 4.6875V13.4375H0.625C0.45924 13.4375 0.300269 13.5033 0.183058 13.6206C0.065848 13.7378 0 13.8967 0 14.0625L0 14.6875C0 15.3505 0.263392 15.9864 0.732233 16.4553C1.20107 16.9241 1.83696 17.1875 2.5 17.1875H17.5C18.163 17.1875 18.7989 16.9241 19.2678 16.4553C19.7366 15.9864 20 15.3505 20 14.6875V14.0625C20 13.8967 19.9342 13.7378 19.8169 13.6206C19.6997 13.5033 19.5408 13.4375 19.375 13.4375ZM2.8125 4.6875C2.8125 4.52174 2.87835 4.36277 2.99556 4.24556C3.11277 4.12835 3.27174 4.0625 3.4375 4.0625H16.5625C16.7283 4.0625 16.8872 4.12835 17.0044 4.24556C17.1217 4.36277 17.1875 4.52174 17.1875 4.6875V13.4375H13.125C12.9592 13.4375 12.8003 13.5033 12.6831 13.6206C12.5658 13.7378 12.5 13.8967 12.5 14.0625H7.5C7.5 13.8967 7.43415 13.7378 7.31694 13.6206C7.19973 13.5033 7.04076 13.4375 6.875 13.4375H2.8125V4.6875ZM17.5 15.9375H2.5C2.16848 15.9375 1.85054 15.8058 1.61612 15.5714C1.3817 15.337 1.25 15.019 1.25 14.6875H6.25C6.25 14.8533 6.31585 15.0122 6.43306 15.1294C6.55027 15.2467 6.70924 15.3125 6.875 15.3125H13.125C13.2908 15.3125 13.4497 15.2467 13.5669 15.1294C13.6842 15.0122 13.75 14.8533 13.75 14.6875H18.75C18.75 15.019 18.6183 15.337 18.3839 15.5714C18.1495 15.8058 17.8315 15.9375 17.5 15.9375Z" fill="#CAD0D9"/>
</g>
<defs>
<clipPath id="clip0_1886_39470">
<rect width="20" height="20" fill="white"/>
</clipPath>
</defs>
</svg>
