<svg width="32" height="32" viewBox="0 0 32 32" fill="none" xmlns="http://www.w3.org/2000/svg">
<path fill-rule="evenodd" clip-rule="evenodd" d="M28 6.33333H4C3.07953 6.33333 2.33333 7.07953 2.33333 8V24C2.33333 24.9205 3.07953 25.6667 4 25.6667H28C28.9205 25.6667 29.6667 24.9205 29.6667 24V8C29.6667 7.07953 28.9205 6.33333 28 6.33333ZM4 4C1.79086 4 0 5.79086 0 8V24C0 26.2091 1.79086 28 4 28H28C30.2091 28 32 26.2091 32 24V8C32 5.79086 30.2091 4 28 4H4Z" fill="white"/>
<path fill-rule="evenodd" clip-rule="evenodd" d="M4.16667 22.6667C4.16667 22.0223 4.689 21.5 5.33333 21.5H9.33333C9.97767 21.5 10.5 22.0223 10.5 22.6667C10.5 23.311 9.97767 23.8333 9.33333 23.8333H5.33333C4.689 23.8333 4.16667 23.311 4.16667 22.6667Z" fill="white"/>
<path fill-rule="evenodd" clip-rule="evenodd" d="M4.16667 10.6667C4.16667 10.0223 4.689 9.5 5.33333 9.5H26.6667C27.311 9.5 27.8333 10.0223 27.8333 10.6667C27.8333 11.311 27.311 11.8333 26.6667 11.8333H5.33333C4.689 11.8333 4.16667 11.311 4.16667 10.6667Z" fill="white"/>
</svg>
