<svg width="32" height="32" viewBox="0 0 32 32" fill="none" xmlns="http://www.w3.org/2000/svg">
<path fill-rule="evenodd" clip-rule="evenodd" d="M3.96573 6.32258C3.86599 6.32258 3.77034 6.36336 3.69981 6.43596C3.62928 6.50855 3.58966 6.60701 3.58966 6.70968V22.5806H4.49752C4.98861 20.7934 6.58501 19.4839 8.47855 19.4839C10.3721 19.4839 11.9685 20.7934 12.4596 22.5806H16.376V6.32258H3.96573ZM18.6324 5.54839V5.16129C18.6324 4.51993 18.1273 4 17.5042 4H3.96573C3.26755 4 2.59797 4.28548 2.10429 4.79365C1.6106 5.30181 1.33325 5.99103 1.33325 6.70968V23.7419C1.33325 24.3833 1.83837 24.9032 2.46146 24.9032H4.49752C4.98861 26.6905 6.58501 28 8.47855 28C10.3721 28 11.9685 26.6905 12.4596 24.9032H19.5403C20.0313 26.6905 21.6277 28 23.5213 28C25.4148 28 27.0112 26.6905 27.5023 24.9032H29.5384C30.1615 24.9032 30.6666 24.3833 30.6666 23.7419V14.4516C30.6666 14.2411 30.611 14.0346 30.5058 13.8541L25.993 6.1122C25.7891 5.76241 25.4219 5.54839 25.0256 5.54839H18.6324ZM18.6324 7.87097V13.2903H27.5458L24.3868 7.87097H18.6324ZM28.4102 15.6129H18.6324V22.5806H19.5403C20.0313 20.7934 21.6277 19.4839 23.5213 19.4839C25.4148 19.4839 27.0112 20.7934 27.5023 22.5806H28.4102V15.6129ZM8.47855 21.8065C7.44007 21.8065 6.59821 22.673 6.59821 23.7419C6.59821 24.8109 7.44007 25.6774 8.47855 25.6774C9.51703 25.6774 10.3589 24.8109 10.3589 23.7419C10.3589 22.673 9.51703 21.8065 8.47855 21.8065ZM23.5213 21.8065C22.4828 21.8065 21.6409 22.673 21.6409 23.7419C21.6409 24.8109 22.4828 25.6774 23.5213 25.6774C24.5598 25.6774 25.4016 24.8109 25.4016 23.7419C25.4016 22.673 24.5598 21.8065 23.5213 21.8065Z" fill="white"/>
</svg>
