<svg width="20" height="20" viewBox="0 0 20 20" fill="none" xmlns="http://www.w3.org/2000/svg">
<g opacity="0.6" clip-path="url(#clip0_1886_39478)">
<path d="M19.375 0.78125H0.625C0.45924 0.78125 0.300269 0.847098 0.183058 0.964308C0.065848 1.08152 0 1.24049 0 1.40625L0 15.1562C0 15.322 0.065848 15.481 0.183058 15.5982C0.300269 15.7154 0.45924 15.7812 0.625 15.7812H8.125V17.9688H6.77812C6.61236 17.9688 6.45339 18.0346 6.33618 18.1518C6.21897 18.269 6.15312 18.428 6.15312 18.5938C6.15312 18.7595 6.21897 18.9185 6.33618 19.0357C6.45339 19.1529 6.61236 19.2188 6.77812 19.2188H13.2219C13.3876 19.2188 13.5466 19.1529 13.6638 19.0357C13.781 18.9185 13.8469 18.7595 13.8469 18.5938C13.8469 18.428 13.781 18.269 13.6638 18.1518C13.5466 18.0346 13.3876 17.9688 13.2219 17.9688H11.875V15.7812H19.375C19.5408 15.7812 19.6997 15.7154 19.8169 15.5982C19.9342 15.481 20 15.322 20 15.1562V1.40625C20 1.24049 19.9342 1.08152 19.8169 0.964308C19.6997 0.847098 19.5408 0.78125 19.375 0.78125ZM18.75 2.03125V12.0312H1.25V2.03125H18.75ZM10.625 17.9688H9.375V15.7812H10.625V17.9688ZM1.25 14.5312V13.2812H18.75V14.5312H1.25Z" fill="#CAD0D9"/>
</g>
<defs>
<clipPath id="clip0_1886_39478">
<rect width="20" height="20" fill="white"/>
</clipPath>
</defs>
</svg>
