<svg width="20" height="20" viewBox="0 0 20 20" fill="none" xmlns="http://www.w3.org/2000/svg">
<g opacity="0.6" clip-path="url(#clip0_1886_39490)">
<path fill-rule="evenodd" clip-rule="evenodd" d="M2.6923 7.18462C3.02871 7.18462 3.30152 7.45743 3.30152 7.79384C3.30152 8.13024 3.02871 8.40305 2.6923 8.40305C2.3559 8.40305 2.08309 8.13024 2.08309 7.79384C2.08309 7.45743 2.3559 7.18462 2.6923 7.18462ZM5.69898 5.5477H14.3011V2.00001H5.69898V5.5477ZM14.4944 6.75231H1.4923C1.41281 6.75231 1.34102 6.78462 1.28871 6.83591C1.23691 6.88821 1.20512 6.96052 1.20512 7.04001V16.1528C1.20512 16.2313 1.23742 16.3031 1.28973 16.3554C1.34203 16.4077 1.41383 16.44 1.4923 16.44H2.88258V15.199C2.88258 14.7954 3.0477 14.4287 3.31285 14.1636L3.31387 14.1646C3.58055 13.8984 3.94668 13.7333 4.34824 13.7333H15.6518C16.0534 13.7333 16.4195 13.8984 16.6862 14.1646L16.6872 14.1636C16.9523 14.4287 17.1175 14.7954 17.1175 15.199V16.44H18.5078C18.5878 16.44 18.6596 16.4087 18.7104 16.3574L18.7129 16.3554C18.7637 16.3046 18.795 16.2328 18.795 16.1528V7.04001C18.795 6.96153 18.7627 6.88973 18.7104 6.83743C18.6581 6.78512 18.5863 6.75231 18.5078 6.75231H14.4944ZM15.5062 1.80669V5.5477H18.5077C18.9185 5.5477 19.2918 5.7154 19.5621 5.98563C19.8323 6.25536 20 6.62872 20 7.04001V16.1528C20 16.561 19.8323 16.9333 19.5621 17.2046L19.56 17.2072C19.2882 17.4775 18.9159 17.6452 18.5077 17.6452H17.1174V17.74C17.1174 18.1436 16.9523 18.5103 16.6871 18.7754C16.422 19.0406 16.0554 19.2052 15.6518 19.2052H4.3482C3.94461 19.2052 3.57793 19.0406 3.31281 18.7754C3.0477 18.5103 2.88254 18.1436 2.88254 17.74V17.6452H1.4923C1.08152 17.6452 0.708203 17.4775 0.43793 17.2072C0.167695 16.9369 0 16.5636 0 16.1528V7.04001C0 6.63028 0.167695 6.25794 0.43793 5.9877L0.44 5.98563C0.710273 5.71536 1.08309 5.5477 1.4923 5.5477H4.49383V1.80669C4.49383 1.52927 4.60766 1.27696 4.79074 1.09388V1.09181C4.97383 0.908719 5.22664 0.794891 5.50562 0.794891H14.4943C14.7733 0.794891 15.0261 0.908719 15.2092 1.09181V1.09388C15.3923 1.27692 15.5062 1.52923 15.5062 1.80669ZM15.6518 14.9385H4.3482C4.27539 14.9385 4.21078 14.9672 4.16461 15.0129V15.0154C4.11691 15.0631 4.0877 15.1282 4.0877 15.199V17.74C4.0877 17.8108 4.11691 17.8759 4.16461 17.9236C4.2123 17.9708 4.27742 18.0006 4.3482 18.0006H15.6518C15.7226 18.0006 15.7877 17.9708 15.8354 17.9236C15.8831 17.8759 15.9123 17.8108 15.9123 17.74V15.199C15.9123 15.1282 15.8831 15.0631 15.8354 15.0154V15.0129C15.7892 14.9672 15.7241 14.9385 15.6518 14.9385ZM5.03898 7.18462C5.3759 7.18462 5.6482 7.45743 5.6482 7.79384C5.6482 8.13024 5.3759 8.40305 5.03898 8.40305C4.70258 8.40305 4.43027 8.13024 4.43027 7.79384C4.43027 7.45743 4.70258 7.18462 5.03898 7.18462Z" fill="#CAD0D9"/>
</g>
<defs>
<clipPath id="clip0_1886_39490">
<rect width="20" height="20" fill="white"/>
</clipPath>
</defs>
</svg>
