<svg width="32" height="32" viewBox="0 0 32 32" fill="none" xmlns="http://www.w3.org/2000/svg">
<path fill-rule="evenodd" clip-rule="evenodd" d="M30.6668 4.16667C31.3111 4.16667 31.8334 4.689 31.8334 5.33333V13.3333C31.8334 13.9777 31.3111 14.5 30.6668 14.5H22.6668C22.0224 14.5 21.5001 13.9777 21.5001 13.3333C21.5001 12.689 22.0224 12.1667 22.6668 12.1667H29.5001V5.33333C29.5001 4.689 30.0224 4.16667 30.6668 4.16667Z" fill="white"/>
<path fill-rule="evenodd" clip-rule="evenodd" d="M0.166752 18.6667C0.166752 18.0223 0.689086 17.5 1.33342 17.5H9.33342C9.97775 17.5 10.5001 18.0223 10.5001 18.6667C10.5001 19.311 9.97775 19.8333 9.33342 19.8333H2.50008V26.6667C2.50008 27.311 1.97775 27.8333 1.33342 27.8333C0.689086 27.8333 0.166752 27.311 0.166752 26.6667V18.6667Z" fill="white"/>
<path fill-rule="evenodd" clip-rule="evenodd" d="M19.0028 5.59642C17.2449 5.08794 15.3868 5.03306 13.6019 5.43691C11.8171 5.84076 10.1636 6.69018 8.79576 7.9059C7.42795 9.12162 6.3904 10.664 5.77992 12.3892C5.56497 12.9966 4.89831 13.3148 4.29089 13.0998C3.68347 12.8849 3.3653 12.2182 3.58025 11.6108C4.32222 9.51406 5.58324 7.63945 7.24566 6.16188C8.90807 4.68431 10.9177 3.65194 13.087 3.16111C15.2563 2.67027 17.5146 2.73697 19.6512 3.35497C21.7817 3.97124 23.722 5.1157 25.292 6.68201L31.4657 12.4831C31.9352 12.9243 31.9582 13.6627 31.517 14.1322C31.0757 14.6018 30.3374 14.6248 29.8678 14.1835L23.6812 8.37021C23.6723 8.36186 23.6635 8.35337 23.6549 8.34475C22.3612 7.05042 20.7608 6.10491 19.0028 5.59642ZM0.483206 17.8678C0.92443 17.3982 1.66277 17.3752 2.13232 17.8165L8.31899 23.6298C8.32788 23.6381 8.33663 23.6466 8.34525 23.6552C9.63893 24.9496 11.2394 25.8951 12.9973 26.4036C14.7553 26.9121 16.6134 26.9669 18.3982 26.5631C20.1831 26.1592 21.8366 25.3098 23.2044 24.0941C24.5722 22.8784 25.6098 21.336 26.2202 19.6108C26.4352 19.0034 27.1019 18.6852 27.7093 18.9002C28.3167 19.1151 28.6349 19.7818 28.4199 20.3892C27.678 22.4859 26.4169 24.3605 24.7545 25.8381C23.0921 27.3157 21.0825 28.3481 18.9132 28.8389C16.7439 29.3297 14.4856 29.263 12.349 28.645C10.2184 28.0288 8.27815 26.8843 6.70816 25.318L0.534512 19.5169C0.0649531 19.0757 0.0419828 18.3373 0.483206 17.8678Z" fill="white"/>
</svg>
