<svg width="48" height="48" viewBox="0 0 48 48" fill="none" xmlns="http://www.w3.org/2000/svg">
<path fill-rule="evenodd" clip-rule="evenodd" d="M26.127 16.8642C26.7072 16.6237 27.3291 16.5 27.9572 16.5C28.5853 16.5 29.2072 16.6237 29.7874 16.8642C30.3677 17.1046 30.8949 17.457 31.3389 17.9012C31.783 18.3452 32.1353 18.8723 32.3757 19.4524C32.6161 20.0326 32.7398 20.6545 32.7398 21.2826C32.7398 21.9107 32.6161 22.5326 32.3757 23.1128C32.1353 23.693 31.7829 24.2202 31.3388 24.6642C31.3387 24.6642 31.3388 24.6641 31.3388 24.6642L24.7088 31.2942C24.4525 31.5504 24.037 31.5504 23.7807 31.2942L17.1507 24.6642C16.2538 23.7673 15.75 22.5509 15.75 21.2826C15.75 20.0143 16.2538 18.7979 17.1507 17.9011C18.0475 17.0042 19.2639 16.5004 20.5322 16.5004C21.8005 16.5004 23.0169 17.0042 23.9138 17.9011L24.2447 18.232L24.5756 17.9012C25.0196 17.457 25.5468 17.1046 26.127 16.8642ZM30.4106 18.829C30.0884 18.5068 29.706 18.2511 29.285 18.0767C28.8641 17.9023 28.4129 17.8125 27.9572 17.8125C27.5016 17.8125 27.0504 17.9023 26.6294 18.0767C26.2085 18.2511 25.826 18.5068 25.5039 18.829L24.7088 19.6242C24.4525 19.8804 24.037 19.8804 23.7807 19.6242L22.9857 18.8292C22.335 18.1785 21.4524 17.8129 20.5322 17.8129C19.612 17.8129 18.7295 18.1785 18.0788 18.8292C17.4281 19.4799 17.0625 20.3624 17.0625 21.2826C17.0625 22.2028 17.4281 23.0854 18.0788 23.7361L24.2447 29.902L30.4107 23.7361C30.733 23.414 30.9887 23.0314 31.1631 22.6104C31.3376 22.1895 31.4273 21.7383 31.4273 21.2826C31.4273 20.827 31.3376 20.3758 31.1631 19.9548C30.9887 19.5339 30.7328 19.1512 30.4106 18.829Z" fill="#E0E5EB"/>
</svg>
