<svg width="20" height="20" viewBox="0 0 20 20" fill="none" xmlns="http://www.w3.org/2000/svg">
<g opacity="0.6">
<path d="M5.625 20H14.375C14.8723 20 15.3492 19.8025 15.7008 19.4508C16.0525 19.0992 16.25 18.6223 16.25 18.125V1.875C16.25 1.37772 16.0525 0.900805 15.7008 0.549175C15.3492 0.197544 14.8723 0 14.375 0L5.625 0C5.12772 0 4.65081 0.197544 4.29917 0.549175C3.94754 0.900805 3.75 1.37772 3.75 1.875V18.125C3.75 18.6223 3.94754 19.0992 4.29917 19.4508C4.65081 19.8025 5.12772 20 5.625 20ZM8.15 1.25H11.85V1.5625H8.15V1.25ZM5 1.875C5 1.70924 5.06585 1.55027 5.18306 1.43306C5.30027 1.31585 5.45924 1.25 5.625 1.25H6.9V2.1875C6.9 2.35326 6.96585 2.51223 7.08306 2.62944C7.20027 2.74665 7.35924 2.8125 7.525 2.8125H12.475C12.6408 2.8125 12.7997 2.74665 12.9169 2.62944C13.0342 2.51223 13.1 2.35326 13.1 2.1875V1.25H14.375C14.5408 1.25 14.6997 1.31585 14.8169 1.43306C14.9342 1.55027 15 1.70924 15 1.875V18.125C15 18.2908 14.9342 18.4497 14.8169 18.5669C14.6997 18.6842 14.5408 18.75 14.375 18.75H5.625C5.45924 18.75 5.30027 18.6842 5.18306 18.5669C5.06585 18.4497 5 18.2908 5 18.125V1.875Z" fill="#CAD0D9"/>
</g>
</svg>
