<svg width="20" height="20" viewBox="0 0 20 20" fill="none" xmlns="http://www.w3.org/2000/svg">
<g opacity="0.6">
<path d="M15.5234 0H4.14844C2.96379 0 2 0.963789 2 2.14844V17.8516C2 19.0362 2.96379 20 4.14844 20H15.5234C16.7081 20 17.6719 19.0362 17.6719 17.8516V2.14844C17.6719 0.963789 16.7081 0 15.5234 0ZM16.5 17.8516C16.5 18.39 16.0619 18.8281 15.5234 18.8281H4.14844C3.60996 18.8281 3.17187 18.39 3.17187 17.8516V2.14844C3.17187 1.60996 3.60996 1.17187 4.14844 1.17187H15.5234C16.0619 1.17187 16.5 1.60996 16.5 2.14844V17.8516Z" fill="#CAD0D9"/>
<path d="M9.83594 9.0625C7.35895 9.0625 5.34375 11.0777 5.34375 13.5547C5.34375 16.0317 7.35895 18.0469 9.83594 18.0469C12.3129 18.0469 14.3281 16.0317 14.3281 13.5547C14.3281 11.0777 12.3129 9.0625 9.83594 9.0625ZM9.83594 16.875C8.00512 16.875 6.51563 15.3855 6.51563 13.5547C6.51563 11.7239 8.00512 10.2344 9.83594 10.2344C11.6668 10.2344 13.1563 11.7239 13.1563 13.5547C13.1563 15.3855 11.6668 16.875 9.83594 16.875Z" fill="#CAD0D9"/>
<path d="M9.83594 7.8125C11.4514 7.8125 12.7656 6.49824 12.7656 4.88281C12.7656 3.26738 11.4514 1.95312 9.83594 1.95312C8.22051 1.95312 6.90625 3.26738 6.90625 4.88281C6.90625 6.49824 8.22051 7.8125 9.83594 7.8125ZM9.83594 3.125C10.8052 3.125 11.5938 3.91355 11.5938 4.88281C11.5938 5.85207 10.8052 6.64062 9.83594 6.64062C8.86668 6.64062 8.07813 5.85207 8.07813 4.88281C8.07813 3.91355 8.86668 3.125 9.83594 3.125Z" fill="#CAD0D9"/>
</g>
</svg>
